<svg width="61" height="60" viewBox="0 0 61 60" fill="none" xmlns="http://www.w3.org/2000/svg">
<rect x="0.5" width="60" height="60" fill="#68B738"/>
<path d="M28.875 16C27.2437 16 25.975 17.3594 25.975 19.0812C25.975 20.8031 27.2437 22.1625 28.875 22.1625C30.5063 22.1625 31.775 20.8031 31.775 19.0812C31.775 17.3594 30.5063 16 28.875 16ZM28.875 17.1781C29.8719 17.1781 30.5969 18.0209 30.5969 19.0812C30.5969 20.0781 29.8084 20.9844 28.875 20.9844C27.8781 20.9844 27.1531 20.1416 27.1531 19.0812C27.1531 18.0844 27.9325 17.1781 28.875 17.1781ZM18 40.7406C18 41.9188 18.4078 42.9156 19.3594 43.7313C20.3563 44.5831 21.5344 44.5106 21.5344 44.5106H40.5656C41.345 44.5106 42.3781 44.13 43.1937 43.0606C44.0366 42.0638 43.9822 40.7044 43.9822 40.7044V23.4856C43.9822 23.0506 43.8734 22.8875 43.2391 22.8875C42.6047 22.8875 42.5503 23.1594 42.5503 23.4766V40.6953C42.5322 40.9944 42.4778 41.7828 41.8072 42.4172C41.0731 43.0425 40.3572 42.9609 40.3572 42.9609C40.3572 42.9609 22.2322 42.9609 21.3259 42.9338C20.9816 42.8703 20.4197 42.7434 19.8759 42.0275C19.3684 41.3025 19.4681 40.3962 19.4681 40.3962V23.1775C19.4681 22.7153 19.2325 22.5431 18.7431 22.5431C18.2538 22.5431 18 22.7153 18 23.1231V40.7406ZM34.3125 24.4281C33.225 24.6637 32.1375 24.8088 30.0531 26.7844C27.9688 28.7781 26.4281 28.6875 24.8875 28.5969C23.3469 28.5063 21.7156 27.0563 21.4438 26.6938C21.1084 26.3403 20.5375 26.5759 20.3562 26.8116C20.2022 27.0472 20.2022 27.455 20.465 27.8084C21.7338 28.9866 22.9119 29.8928 25.1775 30.0741C27.4431 30.2916 29.6181 29.2675 31.0681 27.8084C32.5181 26.3584 33.2431 26.0866 34.3306 25.9053C36.9587 25.4884 38.4994 26.5216 39.4056 27.1741C40.4025 28.2616 40.6744 27.9534 40.9462 27.6453C41.49 26.9294 40.7197 26.3766 39.8588 25.7422C38.0463 24.5641 36.3244 24.1109 34.3306 24.4734L34.3125 24.4281ZM25.25 31.5875C24.0719 31.5875 23.1656 32.5844 23.1656 33.8531C23.1656 35.1219 24.0719 36.1188 25.25 36.1188C26.4281 36.1188 27.3344 35.1219 27.3344 33.8531C27.3344 32.5844 26.4281 31.5875 25.25 31.5875ZM37.0312 32.3669C35.4906 32.3669 34.2219 33.7262 34.2219 35.3575C34.2219 36.9888 35.4906 38.3481 37.0312 38.3481C38.5719 38.3481 39.8406 36.9888 39.8406 35.3575C39.8406 33.7262 38.5719 32.3669 37.0312 32.3669ZM37.0312 33.8169C37.8288 33.8169 38.4813 34.5147 38.4813 35.3575C38.4813 36.2184 37.8288 36.8981 37.0312 36.8981C36.2337 36.8981 35.5812 36.2003 35.5812 35.3575C35.5812 34.4966 36.2337 33.8169 37.0312 33.8169Z" fill="white"/>
</svg>
